<svg width="24" height="24" viewBox="0 0 24 24" fill="none" xmlns="http://www.w3.org/2000/svg">
<g clip-path="url(#clip0_2_222)">
<path d="M15.627 14.9722C15.0768 14.9722 14.6292 14.5848 14.6292 14.1086C14.6292 13.6324 15.0768 13.245 15.627 13.245C16.1772 13.245 16.6247 13.6324 16.6247 14.1086C16.6247 14.359 16.8278 14.5621 17.0783 14.5621C17.3287 14.5621 17.5318 14.359 17.5318 14.1086C17.5318 13.2775 16.9126 12.5787 16.0805 12.3891V12.1532C16.0805 11.9027 15.8774 11.6996 15.627 11.6996C15.3765 11.6996 15.1735 11.9027 15.1735 12.1532V12.3891C14.3414 12.5787 13.7222 13.2775 13.7222 14.1086C13.7222 15.0849 14.5767 15.8792 15.627 15.8792C16.1772 15.8792 16.6247 16.2666 16.6247 16.7428C16.6247 17.219 16.1772 17.6064 15.627 17.6064C15.0768 17.6064 14.6292 17.219 14.6292 16.7428C14.6292 16.4924 14.4261 16.2893 14.1757 16.2893C13.9253 16.2893 13.7222 16.4924 13.7222 16.7428C13.7222 17.5739 14.3414 18.2727 15.1735 18.4624V18.6583C15.1735 18.9087 15.3765 19.1118 15.627 19.1118C15.8774 19.1118 16.0805 18.9087 16.0805 18.6583V18.4624C16.9126 18.2727 17.5318 17.5739 17.5318 16.7428C17.5318 15.7665 16.6773 14.9722 15.627 14.9722Z" fill="white"/>
<path d="M20.5952 12.2745C20.0027 11.3514 19.1681 10.6127 18.1814 10.1384C17.9556 10.0298 17.6846 10.1248 17.5761 10.3506C17.4676 10.5764 17.5626 10.8473 17.7884 10.9558C19.5078 11.7823 20.6187 13.5483 20.6187 15.4549C20.6187 16.2707 20.4176 17.0797 20.0372 17.7947C19.9196 18.0158 20.0034 18.2904 20.2246 18.4081C20.2924 18.4442 20.3653 18.4613 20.4372 18.4613C20.5994 18.4613 20.7564 18.374 20.838 18.2207C21.2879 17.3752 21.5257 16.4187 21.5257 15.4549C21.5257 14.3229 21.204 13.2231 20.5952 12.2745Z" fill="white"/>
<path d="M16.3403 9.55888L16.3097 9.55884C16.0593 9.55884 15.8562 9.76188 15.8562 10.0124C15.8562 10.2628 16.0593 10.4659 16.3097 10.4659L16.336 10.4659C16.3367 10.4659 16.3374 10.4659 16.3382 10.4659C16.5877 10.4659 16.7905 10.2643 16.7917 10.0145C16.7928 9.76406 16.5907 9.56006 16.3403 9.55888Z" fill="white"/>
<path d="M13.4709 19.9537C11.7516 19.1272 10.6407 17.3612 10.6407 15.4547C10.6407 14.6389 10.8418 13.8298 11.2222 13.1149C11.3398 12.8938 11.256 12.6191 11.0348 12.5015C10.8138 12.3838 10.539 12.4677 10.4214 12.6888C9.97147 13.5344 9.73364 14.4908 9.73364 15.4547C9.73364 16.5867 10.0554 17.6864 10.6642 18.635C11.2566 19.5582 12.0913 20.2969 13.078 20.7712C13.1413 20.8017 13.2083 20.8161 13.2741 20.8161C13.443 20.8161 13.6051 20.7214 13.6832 20.559C13.7917 20.3332 13.6967 20.0622 13.4709 19.9537Z" fill="white"/>
<path d="M14.9491 20.4436L14.9229 20.4435C14.6712 20.4431 14.4684 20.6444 14.4673 20.8949C14.4661 21.1454 14.6683 21.3494 14.9187 21.3506L14.9491 21.3507C15.1996 21.3507 15.4026 21.1476 15.4026 20.8972C15.4026 20.6467 15.1996 20.4436 14.9491 20.4436Z" fill="white"/>
<path d="M17.6887 8.02589C17.6335 7.89437 17.5659 7.77042 17.4872 7.65545H18.6679C19.8183 7.65545 20.7542 6.71955 20.7542 5.56922C20.7542 4.41889 19.8183 3.48299 18.6679 3.48299H15.0361C15.267 3.14729 15.4025 2.74116 15.4025 2.30382C15.4025 1.15349 14.4666 0.21759 13.3163 0.21759H2.20488C1.05455 0.21759 0.118652 1.15349 0.118652 2.30382C0.118652 3.45415 1.05455 4.39005 2.20488 4.39005H5.83673C5.60584 4.72575 5.47028 5.13188 5.47028 5.56922C5.47028 6.00656 5.60579 6.41269 5.83673 6.74839H4.65393C3.5036 6.74839 2.5677 7.68429 2.5677 8.83462C2.5677 9.49527 2.87674 10.0848 3.35752 10.4673C2.87674 10.8498 2.5677 11.4394 2.5677 12.1C2.5677 12.7607 2.87674 13.3502 3.35752 13.7327C2.87674 14.1152 2.5677 14.7048 2.5677 15.3654C2.5677 16.0261 2.87674 16.6156 3.35752 16.9981C2.87674 17.3806 2.5677 17.9702 2.5677 18.6308C2.5677 19.7811 3.5036 20.717 4.65393 20.717H9.99876C11.4068 22.2231 13.4098 23.1661 15.6293 23.1661C19.8806 23.1661 23.3393 19.7075 23.3393 15.4562C23.3393 11.9179 20.9433 8.92909 17.6887 8.02589ZM18.6679 4.39005C19.3182 4.39005 19.8471 4.91904 19.8471 5.56922C19.8471 6.2194 19.3182 6.74839 18.6679 6.74839H15.7654H7.55651C6.90629 6.74839 6.37734 6.2194 6.37734 5.56922C6.37734 4.91904 6.90629 4.39005 7.55651 4.39005H18.6679ZM2.20488 3.48299C1.55466 3.48299 1.02571 2.954 1.02571 2.30382C1.02571 1.65364 1.55466 1.12465 2.20488 1.12465H13.3163C13.9665 1.12465 14.4955 1.65364 14.4955 2.30382C14.4955 2.954 13.9665 3.48299 13.3163 3.48299H2.20488ZM4.65393 7.65545H15.7654C15.948 7.65545 16.123 7.6979 16.2799 7.77391C16.0654 7.7559 15.8485 7.7462 15.6293 7.7462C13.5003 7.7462 11.57 8.61375 10.1735 10.0138H4.65393C4.00375 10.0138 3.47476 9.4848 3.47476 8.83462C3.47476 8.18444 4.00375 7.65545 4.65393 7.65545ZM4.65393 10.9208H9.39851C8.88367 11.6262 8.48561 12.4218 8.23281 13.2792H4.65393C4.00371 13.2792 3.47476 12.7502 3.47476 12.1C3.47476 11.4498 4.00371 10.9208 4.65393 10.9208ZM4.65393 14.1862H8.02455C7.95575 14.5995 7.91938 15.0236 7.91938 15.4562C7.91938 15.8256 7.94609 16.1889 7.99657 16.5446H4.65393C4.00371 16.5446 3.47476 16.0156 3.47476 15.3654C3.47476 14.7152 4.00371 14.1862 4.65393 14.1862ZM4.65393 19.81C4.00371 19.81 3.47476 19.281 3.47476 18.6308C3.47476 17.9806 4.00371 17.4516 4.65393 17.4516H8.18174C8.41059 18.3049 8.78235 19.1 9.26989 19.81H4.65393ZM15.6293 22.2591C11.8782 22.2591 8.82643 19.2073 8.82643 15.4562C8.82643 11.705 11.8782 8.65325 15.6293 8.65325C19.3805 8.65325 22.4323 11.705 22.4323 15.4562C22.4323 19.2073 19.3805 22.2591 15.6293 22.2591Z" fill="white"/>
</g>
<defs>
<clipPath id="clip0_2_222">
<rect width="23.2207" height="23.2207" fill="white" transform="translate(0.118652 0.0800171)"/>
</clipPath>
</defs>
</svg>
