<svg width="54" height="54" viewBox="0 0 54 54" fill="none" xmlns="http://www.w3.org/2000/svg">
<path d="M40.1751 18.5565C40.0492 18.2565 39.8949 17.9737 39.7154 17.7114H42.4091C45.0334 17.7114 47.1685 15.5763 47.1685 12.952C47.1685 10.3277 45.0334 8.19258 42.4091 8.19258H34.1235C34.6503 7.42672 34.9595 6.50019 34.9595 5.50247C34.9595 2.87816 32.8244 0.743042 30.2001 0.743042H4.85098C2.22667 0.743042 0.0915527 2.87816 0.0915527 5.50247C0.0915527 8.12677 2.22667 10.2619 4.85098 10.2619H13.1365C12.6098 11.0277 12.3005 11.9543 12.3005 12.952C12.3005 13.9497 12.6097 14.8763 13.1365 15.6421H10.4381C7.81382 15.6421 5.6787 17.7772 5.6787 20.4015C5.6787 21.9087 6.38372 23.2537 7.48056 24.1263C6.38372 24.9989 5.6787 26.3439 5.6787 27.8511C5.6787 29.3583 6.38372 30.7032 7.48056 31.5758C6.38372 32.4485 5.6787 33.7934 5.6787 35.3006C5.6787 36.8078 6.38372 38.1527 7.48056 39.0254C6.38372 39.898 5.6787 41.243 5.6787 42.7501C5.6787 45.3745 7.81382 47.5096 10.4381 47.5096H22.6316C25.8438 50.9454 30.4134 53.0968 35.477 53.0968C45.1756 53.0968 53.0661 45.2063 53.0661 35.5076C53.0661 27.4356 47.6 20.6171 40.1751 18.5565ZM42.4091 10.2619C43.8924 10.2619 45.0992 11.4687 45.0992 12.952C45.0992 14.4353 43.8924 15.6421 42.4091 15.6421H35.7872H17.0599C15.5766 15.6421 14.3698 14.4353 14.3698 12.952C14.3698 11.4687 15.5766 10.2619 17.0599 10.2619H42.4091ZM4.85098 8.19258C3.36759 8.19258 2.16087 6.98575 2.16087 5.50247C2.16087 4.01918 3.36759 2.81236 4.85098 2.81236H30.2001C31.6835 2.81236 32.8902 4.01918 32.8902 5.50247C32.8902 6.98575 31.6835 8.19258 30.2001 8.19258H4.85098ZM10.4381 17.7114H35.7872C36.204 17.7114 36.6031 17.8083 36.9611 17.9817C36.4717 17.9406 35.9769 17.9185 35.477 17.9185C30.6198 17.9185 26.2162 19.8977 23.0301 23.0916H10.4381C8.95485 23.0916 7.74802 21.8848 7.74802 20.4015C7.74802 18.9183 8.95485 17.7114 10.4381 17.7114ZM10.4381 25.161H21.2622C20.0877 26.7702 19.1795 28.5852 18.6028 30.5412H10.4381C8.95474 30.5412 7.74802 29.3345 7.74802 27.8511C7.74802 26.3678 8.95474 25.161 10.4381 25.161ZM10.4381 32.6105H18.1277C17.9708 33.5534 17.8878 34.5209 17.8878 35.5076C17.8878 36.3505 17.9487 37.1792 18.0639 37.9907H10.4381C8.95474 37.9907 7.74802 36.784 7.74802 35.3006C7.74802 33.8172 8.95474 32.6105 10.4381 32.6105ZM10.4381 45.4403C8.95474 45.4403 7.74802 44.2335 7.74802 42.7501C7.74802 41.2668 8.95474 40.06 10.4381 40.06H18.4863C19.0084 42.0065 19.8565 43.8206 20.9688 45.4403H10.4381ZM35.477 51.0275C26.9193 51.0275 19.9571 44.0653 19.9571 35.5076C19.9571 26.95 26.9193 19.9878 35.477 19.9878C44.0346 19.9878 50.9968 26.95 50.9968 35.5076C50.9968 44.0653 44.0346 51.0275 35.477 51.0275Z" fill="#051115"/>
</svg>
