<svg width="25" height="24" viewBox="0 0 25 24" fill="none" xmlns="http://www.w3.org/2000/svg">
<g clip-path="url(#clip0_97_63)">
<path d="M9.56853 4.06668C8.46921 4.06668 7.5752 3.17267 7.5752 2.07335C7.5752 0.974027 8.46921 0.0800171 9.56853 0.0800171C10.6679 0.0800171 11.5619 0.974027 11.5619 2.07335C11.5619 3.17267 10.6679 4.06668 9.56853 4.06668ZM9.56853 1.07668C9.01937 1.07668 8.57186 1.52419 8.57186 2.07335C8.57186 2.62251 9.01937 3.07002 9.56853 3.07002C10.1177 3.07002 10.5652 2.62251 10.5652 2.07335C10.5652 1.52419 10.1177 1.07668 9.56853 1.07668Z" fill="white"/>
<path d="M6.86778 11.3324C6.74021 11.3324 6.61263 11.2835 6.51496 11.1869L2.23926 6.91116C2.14657 6.81747 2.09375 6.6909 2.09375 6.55834V3.56834C2.09375 3.29326 2.317 3.07001 2.59208 3.07001C2.86716 3.07001 3.09042 3.29326 3.09042 3.56834V6.35203L7.2206 10.4822C7.41495 10.6766 7.41495 10.9925 7.2206 11.1869C7.12293 11.2835 6.99535 11.3324 6.86778 11.3324Z" fill="white"/>
<path d="M2.59197 4.06668C1.49264 4.06668 0.598633 3.17267 0.598633 2.07335C0.598633 0.974027 1.49264 0.0800171 2.59197 0.0800171C3.69129 0.0800171 4.5853 0.974027 4.5853 2.07335C4.5853 3.17267 3.69129 4.06668 2.59197 4.06668ZM2.59197 1.07668C2.0428 1.07668 1.5953 1.52419 1.5953 2.07335C1.5953 2.62251 2.0428 3.07002 2.59197 3.07002C3.14113 3.07002 3.58863 2.62251 3.58863 2.07335C3.58863 1.52419 3.14113 1.07668 2.59197 1.07668Z" fill="white"/>
<path d="M9.56865 10.0467C9.29357 10.0467 9.07031 9.82342 9.07031 9.54834V3.56834C9.07031 3.29326 9.29357 3.07001 9.56865 3.07001C9.84373 3.07001 10.067 3.29326 10.067 3.56834V9.54834C10.067 9.82342 9.84373 10.0467 9.56865 10.0467Z" fill="white"/>
<path d="M12.7381 10.8639C12.6105 10.8639 12.4829 10.8151 12.3853 10.7184C12.1909 10.5241 12.1909 10.2081 12.3853 10.0138L16.047 6.35203V3.56834C16.047 3.29326 16.2703 3.07001 16.5453 3.07001C16.8204 3.07001 17.0437 3.29326 17.0437 3.56834V6.55834C17.0437 6.6909 16.9909 6.81747 16.8982 6.91116L13.0909 10.7184C12.9932 10.8151 12.8657 10.8639 12.7381 10.8639Z" fill="white"/>
<path d="M16.5453 4.06668C15.446 4.06668 14.552 3.17267 14.552 2.07335C14.552 0.974027 15.446 0.0800171 16.5453 0.0800171C17.6447 0.0800171 18.5387 0.974027 18.5387 2.07335C18.5387 3.17267 17.6447 4.06668 16.5453 4.06668ZM16.5453 1.07668C15.9962 1.07668 15.5487 1.52419 15.5487 2.07335C15.5487 2.62251 15.9962 3.07002 16.5453 3.07002C17.0945 3.07002 17.542 2.62251 17.542 2.07335C17.542 1.52419 17.0945 1.07668 16.5453 1.07668Z" fill="white"/>
<path d="M18.4429 23.7C17.4721 23.7 16.3479 23.393 15.0562 22.78C13.614 22.0963 12.9193 22.1232 12.4609 22.1422C12.0901 22.1591 11.7054 22.1721 11.3247 21.7913C11.1911 21.6578 10.5841 20.9302 11.7772 19.7372C12.3722 19.1422 13.1884 18.9708 13.8971 18.9608L9.76488 14.8286C9.19977 14.2635 9.20077 13.3426 9.76787 12.7755C10.334 12.2094 11.2549 12.2074 11.821 12.7735L13.5383 14.4908C13.606 14.3552 13.6967 14.2286 13.8094 14.116C14.204 13.7213 14.7701 13.6017 15.2665 13.7552C15.3363 13.5579 15.4509 13.3725 15.6083 13.214C16.1485 12.6728 17.0126 12.6469 17.5827 13.1383C17.6515 12.9997 17.7442 12.8722 17.8558 12.7605C18.4229 12.1944 19.3429 12.1924 19.909 12.7585L22.6 15.4495C24.2873 17.1369 24.1019 19.5797 22.1485 21.5392C22.1475 21.5402 22.1465 21.5412 22.1455 21.5422C22.1415 21.5462 22.1365 21.5511 22.1325 21.5561L21.0153 22.6734C20.3206 23.3571 19.4674 23.7 18.4429 23.7ZM12.731 21.1385C13.2751 21.1385 14.1113 21.2282 15.4838 21.879C18.4588 23.2903 19.6648 22.6036 20.3146 21.9638L21.4368 20.8415C21.4398 20.8385 21.4428 20.8355 21.4448 20.8335C22.6319 19.6345 23.4511 17.708 21.9043 16.1612L19.2053 13.4622C19.0279 13.2858 18.7409 13.2868 18.5615 13.4642C18.3831 13.6426 18.3821 13.9306 18.5585 14.108L19.2312 14.7808C19.3289 14.8785 19.3767 15.006 19.3767 15.1336C19.3767 15.2612 19.3279 15.3887 19.2312 15.4864C19.0369 15.6808 18.7209 15.6808 18.5266 15.4864L16.9568 13.9167C16.7794 13.7413 16.4924 13.7423 16.314 13.9197C16.1356 14.0981 16.1346 14.3861 16.311 14.5635L17.4322 15.6848C17.5299 15.7824 17.5778 15.91 17.5778 16.0376C17.5778 16.1652 17.5289 16.2927 17.4322 16.3904C17.2379 16.5847 16.9219 16.5847 16.7276 16.3904L15.1578 14.8206C14.9804 14.6442 14.6934 14.6462 14.515 14.8236C14.3366 15.002 14.3356 15.2901 14.512 15.4675L15.6333 16.5887C15.7309 16.6864 15.7788 16.814 15.7788 16.9416C15.7788 17.0691 15.7299 17.1967 15.6333 17.2944C15.4389 17.4887 15.123 17.4887 14.9286 17.2944L11.1164 13.4821C10.94 13.3057 10.6519 13.3067 10.4725 13.4841C10.2941 13.6625 10.2931 13.9506 10.4695 14.128L15.6273 19.2857C15.7887 19.4472 15.8196 19.6963 15.703 19.8917C15.5864 20.087 15.3502 20.1797 15.1339 20.1159C15.115 20.111 13.329 19.5987 12.4808 20.4458C12.0951 20.8315 12.0383 21.0688 12.0482 21.1226C12.0911 21.1525 12.0991 21.1624 12.421 21.1505C12.5137 21.1425 12.6163 21.1385 12.731 21.1385V21.1385Z" fill="white"/>
<path d="M7.36607 16.226C7.25045 16.226 7.12886 16.1861 7.03916 16.1124C6.11325 15.3529 5.58203 14.2317 5.58203 13.0367C5.58203 10.838 7.37005 9.04999 9.5687 9.04999C10.1587 9.04999 10.7169 9.17357 11.2291 9.41776C11.4773 9.53636 11.583 9.83337 11.4644 10.0825C11.3458 10.3307 11.0507 10.4364 10.7996 10.3177C10.4228 10.1374 10.0092 10.0467 9.5687 10.0467C7.92021 10.0467 6.5787 11.3882 6.5787 13.0367C6.5787 13.9217 6.96839 14.7539 7.64912 15.323C7.7757 15.4137 7.85942 15.5612 7.85942 15.7277C7.85942 16.0037 7.64115 16.226 7.36607 16.226V16.226Z" fill="white"/>
</g>
<defs>
<clipPath id="clip0_97_63">
<rect width="23.92" height="23.92" fill="white" transform="translate(0.598633 0.0800171)"/>
</clipPath>
</defs>
</svg>
