<svg width="24" height="24" viewBox="0 0 24 24" fill="none" xmlns="http://www.w3.org/2000/svg">
<g clip-path="url(#clip0_2_213)">
<path d="M23.3772 18.879C23.2682 18.3546 22.96 17.9066 22.5091 17.6173C22.0582 17.3281 21.5227 17.2348 21.0004 17.3542L18.58 17.9083V16.9189C19.0655 16.4616 19.5709 15.8646 19.9303 15.319C20.5607 14.3621 21.0068 13.3114 21.2562 12.1965C21.5528 10.8701 21.5592 9.46597 21.2745 8.13532C21.222 7.89048 20.9809 7.73423 20.7361 7.78685C20.4911 7.83911 20.3352 8.08022 20.3874 8.32523C20.645 9.52868 20.6393 10.7989 20.3709 11.9985C20.1456 13.0058 19.7424 13.9552 19.1728 14.8199C19.004 15.0763 18.7992 15.3452 18.58 15.6021V10.575C18.58 10.3245 18.377 10.1215 18.1265 10.1215H14.5388V5.27827C14.5388 5.02847 14.3367 4.82562 14.0869 4.82474L10.0457 4.8111C10.0452 4.8111 10.0448 4.8111 10.0443 4.8111C9.9242 4.8111 9.80904 4.85858 9.72418 4.94343C9.63879 5.02847 9.59078 5.14398 9.59078 5.26462V7.78401H6.00259C5.75226 7.78401 5.54906 7.98704 5.54906 8.23754V12.7287H4.53854V12.1127C4.53854 11.8624 4.33552 11.6594 4.08501 11.6594H3.61979C3.5406 11.2234 3.49472 10.7805 3.48391 10.3383C3.45734 9.26312 3.62777 8.21114 3.99023 7.21125C4.07474 6.97811 4.17076 6.74568 4.27546 6.52069C4.38123 6.29357 4.28272 6.02375 4.05578 5.91799C3.82866 5.81258 3.55885 5.91073 3.45326 6.13784C3.33722 6.38693 3.23093 6.64417 3.13756 6.90211C2.73648 8.00847 2.54798 9.17223 2.57703 10.3606C2.58784 10.795 2.62929 11.2298 2.69963 11.6594H0.652015C0.401511 11.6594 0.198486 11.8624 0.198486 12.1129V20.0847C0.198486 20.3352 0.401511 20.5383 0.652015 20.5383H4.08501C4.33552 20.5383 4.53854 20.3352 4.53854 20.0847V19.6535H6.24459L13.1554 22.3641C13.8006 22.6172 14.4765 22.7446 15.1559 22.7446C15.6089 22.7446 16.0638 22.6879 16.5119 22.574L21.9285 21.1973C22.9568 20.936 23.5929 19.9177 23.3772 18.879V18.879ZM17.6732 11.0285V18.116L16.4607 18.3936C16.3303 18.4233 16.1985 18.4469 16.066 18.4653C15.5607 18.5349 15.0452 18.5202 14.5452 18.4212C14.5431 18.4207 14.541 18.4203 14.5388 18.4198V17.7321C14.8847 17.2162 14.9993 16.5621 14.8181 15.9651C14.7676 15.7985 14.6958 15.6379 14.6046 15.4896C14.5838 15.4559 14.5622 15.423 14.5397 15.3907C14.5396 15.3902 14.5392 15.3898 14.5388 15.3893V11.0283H17.6732V11.0285ZM10.4978 5.71975L13.632 5.7302V14.669L11.8804 13.944L10.4978 13.3716V5.71975ZM6.45612 8.69107H9.59025V12.9959L9.02777 12.7631C8.97267 12.7402 8.91368 12.7285 8.85433 12.7285H6.45612V8.69107ZM3.63149 19.6312H1.10554V12.5663H3.24528C3.24616 12.5663 3.24723 12.5664 3.24829 12.5664C3.24918 12.5664 3.24988 12.5663 3.25077 12.5663H3.63149V19.6312ZM21.7051 20.3182L16.2885 21.6949C15.3534 21.9325 14.3845 21.8717 13.4865 21.5197L6.49598 18.7778C6.44319 18.7571 6.38703 18.7466 6.33034 18.7466H4.53854V13.6358H8.76398L11.6984 14.8504L13.3042 15.5151C13.8724 15.7507 14.1443 16.4172 13.9114 16.9846C13.8646 17.0985 13.8066 17.2068 13.7298 17.3033C13.4458 17.6617 12.9783 17.8197 12.541 17.7135C12.5375 17.7126 12.5339 17.7117 12.5304 17.7108C12.5042 17.7042 12.4781 17.6966 12.4523 17.6881L9.40069 16.515C9.37589 16.5054 9.36278 16.5004 9.36278 16.5004C9.1291 16.4104 8.86673 16.5272 8.77673 16.761C8.68691 16.9947 8.80348 17.2573 9.03733 17.3471C9.03733 17.3471 10.7579 18.0086 12.07 18.5146C12.0963 18.5248 12.1226 18.5344 12.149 18.5433L13.1565 18.9307C13.461 19.0478 13.7641 19.1644 14.0811 19.2454C14.6193 19.3828 15.1779 19.4381 15.7327 19.4078C16.0456 19.3908 16.3579 19.3476 16.6633 19.2778L18.2278 18.9197C18.2294 18.9194 18.231 18.9187 18.2326 18.9183L21.2029 18.2384C21.4855 18.1737 21.7755 18.2242 22.0192 18.3806C22.2634 18.5372 22.4301 18.7798 22.4891 19.0636C22.606 19.6257 22.2616 20.1769 21.7051 20.3182V20.3182Z" fill="white"/>
<path d="M5.99757 3.89558C6.106 3.89558 6.21477 3.85696 6.3014 3.77866C7.11067 3.0477 8.07708 2.46466 9.09663 2.09245C10.2012 1.68924 11.4121 1.51721 12.5985 1.59516C13.4477 1.65097 14.2796 1.8322 15.0712 2.13373C15.305 2.22284 15.5672 2.10556 15.6563 1.87136C15.7456 1.63733 15.6282 1.37531 15.394 1.2862C14.5181 0.952429 13.5976 0.751885 12.6581 0.690056C11.3467 0.603956 10.0076 0.794226 8.78554 1.24049C7.65756 1.65221 6.5884 2.29725 5.69357 3.10545C5.50755 3.2734 5.49302 3.56022 5.66097 3.74606C5.75044 3.84527 5.87374 3.89558 5.99757 3.89558V3.89558Z" fill="white"/>
<path d="M16.2935 7.13191C16.3794 7.20649 16.4854 7.24299 16.5908 7.24299C16.7175 7.24299 16.8436 7.19019 16.9334 7.08709L20.6648 2.79185C20.8292 2.60282 20.809 2.31636 20.6199 2.15213C20.4307 1.9879 20.1444 2.00792 19.9802 2.19695L16.2487 6.49219C16.0843 6.68121 16.1045 6.96768 16.2935 7.13191Z" fill="white"/>
<path d="M19.6364 5.19312C19.0086 5.19312 18.4978 5.70387 18.4978 6.33172C18.4978 6.95957 19.0086 7.47032 19.6364 7.47032C20.2643 7.47032 20.775 6.9594 20.775 6.33172C20.775 5.70387 20.2643 5.19312 19.6364 5.19312V5.19312ZM19.6364 6.56327C19.5087 6.56327 19.4049 6.45945 19.4049 6.33172C19.4049 6.20417 19.5087 6.10017 19.6364 6.10017C19.764 6.10017 19.868 6.20417 19.868 6.33172C19.868 6.45945 19.764 6.56327 19.6364 6.56327Z" fill="white"/>
<path d="M17.1186 4.18376C17.7464 4.18376 18.2572 3.67301 18.2572 3.04516C18.2572 2.41731 17.7464 1.90656 17.1186 1.90656C16.4907 1.90656 15.98 2.41731 15.98 3.04516C15.98 3.67301 16.4907 4.18376 17.1186 4.18376V4.18376ZM17.1186 2.81344C17.2463 2.81344 17.3501 2.91743 17.3501 3.04516C17.3501 3.17271 17.2463 3.27671 17.1186 3.27671C16.9909 3.27671 16.887 3.17271 16.887 3.04516C16.887 2.91743 16.9909 2.81344 17.1186 2.81344Z" fill="white"/>
<path d="M4.38594 4.96134C4.45857 5.13566 4.63733 5.25082 4.82671 5.2409C5.01397 5.23115 5.17802 5.10448 5.23595 4.92661C5.29441 4.74715 5.23063 4.54271 5.08058 4.42809C4.92769 4.31152 4.71297 4.30425 4.55282 4.41073C4.37513 4.52889 4.30391 4.76451 4.38594 4.96134Z" fill="white"/>
</g>
<defs>
<clipPath id="clip0_2_213">
<rect width="23.2207" height="23.2207" fill="white" transform="translate(0.19873 0.0800171)"/>
</clipPath>
</defs>
</svg>
